<svg width="228" height="232" viewBox="0 0 228 232" fill="none" xmlns="http://www.w3.org/2000/svg">
<rect width="228" height="232" fill="#8800B8"/>
<rect x="21" y="24" width="86" height="82" fill="#D9D9D9"/>
<rect x="21" y="24" width="86" height="82" fill="#D9D9D9"/>
<rect x="129" y="133" width="83" height="82" fill="#D9D9D9"/>
<path d="M40.6364 39.4545H47.0909L60 61.1818H60.5455L73.4545 39.4545H79.9091L63.0909 66.8182V86H57.4545V66.8182L40.6364 39.4545ZM22.6364 116.455H29.0909L42 138.182H42.5455L55.4545 116.455H61.9091L45.0909 143.818V163H39.4545V143.818L22.6364 116.455Z" fill="#8800B8"/>
<path d="M154.545 86H148.636L165.727 39.4545H171.545L188.636 86H182.727L168.818 46.8182H168.455L154.545 86ZM156.727 67.8182H180.545V72.8182H156.727V67.8182Z" fill="white"/>
<path d="M152.636 195V148.455H158.273V190H179.909V195H152.636Z" fill="#8800B8"/>
<path d="M42.0909 153.455V148.455H77V153.455H62.3636V195H56.7273V153.455H42.0909Z" fill="white"/>
</svg>
